<?xml version="1.0" encoding="UTF-8"?>
<svg id="_图层_1" data-name="图层 1" xmlns="http://www.w3.org/2000/svg" viewBox="0 0 208.9 90">
  <defs>
    <style>
      .cls-1 {
        fill: #16925f;
      }

      .cls-2 {
        fill: none;
      }

      .cls-3 {
        fill: #e5eaee;
      }
    </style>
  </defs>
  <g>
    <rect class="cls-2" x="-2.95" y="-7.51" width="204.97" height="76.35"/>
    <path class="cls-3" d="M0,.03h25.07v11.39h-10.27v10.79h9.14v10.83h-9.14v23.91H0V.03Z"/>
    <path class="cls-3" d="M60.75,10.3v46.65h-14.45l.25-3.88c-.98,1.57-2.2,2.75-3.64,3.54-1.44.79-3.1,1.18-4.97,1.18-2.13,0-3.9-.38-5.31-1.12s-2.44-1.75-3.11-2.99-1.08-2.54-1.25-3.88c-.16-1.35-.25-4.03-.25-8.03V10.3h14.2v31.75c0,3.63.11,5.79.33,6.47.22.68.83,1.02,1.81,1.02,1.05,0,1.68-.35,1.88-1.05.2-.7.3-2.96.3-6.79V10.3h14.2Z"/>
    <path class="cls-3" d="M79.88,10.3l-.25,4.44c1.1-1.76,2.41-3.08,3.94-3.96,1.52-.88,3.26-1.32,5.2-1.32,3.8,0,6.79,1.76,8.96,5.28,1.2-1.76,2.54-3.08,4.04-3.96,1.5-.88,3.16-1.32,4.99-1.32,2.41,0,4.41.59,5.99,1.76,1.58,1.17,2.6,2.61,3.04,4.31.45,1.7.67,4.46.67,8.28v33.15h-13.78v-30.41c0-3.98-.13-6.45-.4-7.4s-.9-1.42-1.88-1.42-1.66.47-1.95,1.41c-.29.94-.44,3.41-.44,7.42v30.41h-13.78v-29.64c0-4.57-.11-7.31-.33-8.23-.22-.91-.84-1.37-1.85-1.37-.63,0-1.17.24-1.62.72-.45.48-.69,1.07-.74,1.76-.05.69-.07,2.16-.07,4.41v32.34h-13.78V10.3h14.03Z"/>
    <path class="cls-3" d="M153.5,26.68v11.43c0,4.2-.21,7.27-.63,9.23-.42,1.96-1.32,3.79-2.71,5.48s-3.16,2.95-5.33,3.76-4.66,1.21-7.47,1.21c-3.14,0-5.8-.35-7.98-1.04s-3.87-1.73-5.08-3.13-2.07-3.08-2.58-5.06-.77-4.95-.77-8.91v-11.95c0-4.34.47-7.72,1.41-10.16.94-2.44,2.62-4.39,5.06-5.87s5.55-2.21,9.35-2.21c3.19,0,5.92.47,8.21,1.42s4.05,2.19,5.29,3.71c1.24,1.52,2.09,3.09,2.55,4.71s.69,4.08.69,7.38ZM139.29,23.17c0-2.39-.13-3.9-.39-4.52-.26-.62-.81-.93-1.65-.93s-1.41.31-1.69.93c-.28.62-.42,2.13-.42,4.52v21.06c0,2.2.14,3.64.42,4.31s.83,1,1.65,1,1.4-.3,1.67-.91.4-1.92.4-3.94v-21.52Z"/>
  </g>
  <g>
    <rect class="cls-2" x="44.95" y="18.92" width="200.03" height="81.29"/>
    <path class="cls-1" d="M79.27,43.69h-13.75v-4.22c0-1.97-.18-3.22-.53-3.76-.35-.54-.94-.81-1.76-.81-.89,0-1.56.36-2.02,1.09-.46.73-.69,1.83-.69,3.31,0,1.9.26,3.33.77,4.29.49.96,1.88,2.12,4.18,3.48,6.59,3.91,10.74,7.12,12.45,9.63,1.71,2.51,2.57,6.55,2.57,12.13,0,4.05-.47,7.04-1.42,8.96s-2.78,3.53-5.5,4.83c-2.72,1.3-5.88,1.95-9.49,1.95-3.96,0-7.34-.75-10.14-2.25-2.8-1.5-4.64-3.41-5.5-5.73-.87-2.32-1.3-5.61-1.3-9.88v-3.73h13.75v6.93c0,2.13.19,3.5.58,4.11s1.07.91,2.06.91,1.72-.39,2.2-1.16c.48-.77.72-1.92.72-3.45,0-3.35-.46-5.54-1.37-6.57-.94-1.03-3.25-2.75-6.93-5.17-3.68-2.44-6.12-4.21-7.31-5.31s-2.19-2.62-2.97-4.57c-.79-1.94-1.18-4.43-1.18-7.45,0-4.36.56-7.55,1.67-9.56,1.11-2.02,2.91-3.59,5.4-4.73,2.48-1.14,5.48-1.71,9-1.71,3.84,0,7.12.62,9.83,1.86,2.71,1.24,4.5,2.81,5.38,4.69.88,1.89,1.32,5.09,1.32,9.62v2.25Z"/>
    <path class="cls-1" d="M98.66,36.72l-.25,4.12c1.27-1.67,2.66-2.91,4.18-3.73,1.52-.82,3.19-1.23,4.99-1.23,2.2,0,4.11.59,5.71,1.78,1.61,1.18,2.61,2.55,3.01,4.1s.6,4.17.6,7.87v19.65c0,4.24-.25,7.26-.76,9.05s-1.54,3.22-3.09,4.29-3.44,1.6-5.64,1.6c-1.76,0-3.39-.41-4.89-1.23-1.5-.82-2.87-2.04-4.11-3.66v10.7h-14.2v-53.3h14.45ZM102.7,50.29c0-2.88-.11-4.63-.32-5.24s-.8-.91-1.76-.91-1.54.35-1.81,1.05c-.27.7-.4,2.4-.4,5.1v19.34c0,2.81.14,4.57.42,5.27s.89,1.05,1.83,1.05,1.48-.32,1.71-.97c.22-.64.33-2.21.33-4.69v-20Z"/>
    <path class="cls-1" d="M153.21,53.11v11.43c0,4.2-.21,7.27-.63,9.23s-1.32,3.79-2.71,5.48-3.16,2.95-5.33,3.76-4.66,1.21-7.47,1.21c-3.14,0-5.8-.35-7.98-1.04s-3.87-1.73-5.08-3.13-2.07-3.08-2.58-5.06-.77-4.95-.77-8.91v-11.95c0-4.34.47-7.72,1.41-10.16s2.62-4.39,5.06-5.87,5.55-2.21,9.35-2.21c3.19,0,5.92.47,8.21,1.42s4.05,2.19,5.29,3.71,2.09,3.09,2.55,4.71.69,4.08.69,7.38ZM139.01,49.59c0-2.39-.13-3.9-.39-4.52s-.81-.93-1.65-.93-1.41.31-1.69.93c-.28.62-.42,2.13-.42,4.52v21.06c0,2.2.14,3.64.42,4.31.28.67.83,1,1.65,1s1.4-.3,1.67-.91.4-1.92.4-3.94v-21.52Z"/>
    <path class="cls-1" d="M172.36,30.5v7.35h3.83v7.38h-3.83v24.96c0,3.07.16,4.78.47,5.13s1.63.53,3.96.53v7.52h-5.73c-3.23,0-5.54-.13-6.93-.4s-2.6-.89-3.66-1.86-1.71-2.09-1.97-3.34-.39-4.2-.39-8.84v-23.69h-3.06v-7.38h3.06v-7.35h14.24Z"/>
    <path class="cls-1" d="M207.82,51.63h-12.59v-2.53c0-2.16-.12-3.52-.37-4.1s-.86-.86-1.85-.86c-.8,0-1.39.26-1.79.79s-.6,1.32-.6,2.37c0,1.43.1,2.48.3,3.15s.8,1.4,1.79,2.2,3.04,1.96,6.13,3.48c4.12,2.02,6.83,3.91,8.12,5.7s1.93,4.37,1.93,7.77c0,3.8-.49,6.66-1.48,8.6s-2.63,3.42-4.94,4.46-5.09,1.56-8.35,1.56c-3.61,0-6.7-.56-9.26-1.69s-4.33-2.65-5.29-4.57-1.44-4.83-1.44-8.72v-2.25h12.59v2.95c0,2.51.16,4.14.47,4.89s.94,1.12,1.88,1.12c1.01,0,1.71-.25,2.11-.76s.6-1.56.6-3.18c0-2.23-.26-3.62-.77-4.18-.54-.56-3.29-2.23-8.26-4.99-4.17-2.34-6.71-4.47-7.63-6.38s-1.37-4.18-1.37-6.8c0-3.73.49-6.47,1.48-8.24s2.65-3.13,5.01-4.1c2.36-.96,5.09-1.44,8.21-1.44s5.72.39,7.89,1.18c2.17.79,3.83,1.82,4.99,3.11,1.16,1.29,1.86,2.48,2.11,3.59s.37,2.82.37,5.17v2.71Z"/>
  </g>
</svg>